<svg width="496" height="496" viewBox="0 0 496 496" fill="none" xmlns="http://www.w3.org/2000/svg">
<path d="M488 456H480V184C480 181.878 479.157 179.843 477.657 178.343C476.157 176.843 474.122 176 472 176H448V136C448 133.878 447.157 131.843 445.657 130.343C444.157 128.843 442.122 128 440 128H312C309.878 128 307.843 128.843 306.343 130.343C304.843 131.843 304 133.878 304 136V176H288V8C288 5.87827 287.157 3.84344 285.657 2.34315C284.157 0.842854 282.122 0 280 0H24C21.8783 0 19.8434 0.842854 18.3431 2.34315C16.8429 3.84344 16 5.87827 16 8V456H8C5.87827 456 3.84344 456.843 2.34315 458.343C0.842854 459.843 0 461.878 0 464V488C0 490.122 0.842854 492.157 2.34315 493.657C3.84344 495.157 5.87827 496 8 496H488C490.122 496 492.157 495.157 493.657 493.657C495.157 492.157 496 490.122 496 488V464C496 461.878 495.157 459.843 493.657 458.343C492.157 456.843 490.122 456 488 456ZM320 144H432V176H320V144ZM288 192H464V456H288V192ZM32 16H272V456H232V440C232 437.878 231.157 435.843 229.657 434.343C228.157 432.843 226.122 432 224 432H216V312C216 309.878 215.157 307.843 213.657 306.343C212.157 304.843 210.122 304 208 304H96C93.8783 304 91.8434 304.843 90.3431 306.343C88.8429 307.843 88 309.878 88 312V432H80C77.8783 432 75.8434 432.843 74.3431 434.343C72.8429 435.843 72 437.878 72 440V456H32V16ZM216 448V456H88V448H216ZM104 432V320H144V432H104ZM160 432V320H200V432H160ZM480 480H16V472H480V480Z" fill="#717171"/>
<path d="M136 288C138.122 288 140.157 287.157 141.657 285.657C143.157 284.157 144 282.122 144 280V184C144 181.878 143.157 179.843 141.657 178.343C140.157 176.843 138.122 176 136 176H56C53.8783 176 51.8434 176.843 50.3431 178.343C48.8429 179.843 48 181.878 48 184V280C48 282.122 48.8429 284.157 50.3431 285.657C51.8434 287.157 53.8783 288 56 288H136ZM64 192H128V272H64V192Z" fill="#717171"/>
<path d="M168 288H248C250.122 288 252.157 287.157 253.657 285.657C255.157 284.157 256 282.122 256 280V184C256 181.878 255.157 179.843 253.657 178.343C252.157 176.843 250.122 176 248 176H168C165.878 176 163.843 176.843 162.343 178.343C160.843 179.843 160 181.878 160 184V280C160 282.122 160.843 284.157 162.343 285.657C163.843 287.157 165.878 288 168 288ZM176 192H240V272H176V192Z" fill="#717171"/>
<path d="M56 160H136C138.122 160 140.157 159.157 141.657 157.657C143.157 156.157 144 154.122 144 152V56C144 53.8783 143.157 51.8434 141.657 50.3431C140.157 48.8429 138.122 48 136 48H56C53.8783 48 51.8434 48.8429 50.3431 50.3431C48.8429 51.8434 48 53.8783 48 56V152C48 154.122 48.8429 156.157 50.3431 157.657C51.8434 159.157 53.8783 160 56 160ZM64 64H128V144H64V64Z" fill="#717171"/>
<path d="M168 160H248C250.122 160 252.157 159.157 253.657 157.657C255.157 156.157 256 154.122 256 152V56C256 53.8783 255.157 51.8434 253.657 50.3431C252.157 48.8429 250.122 48 248 48H168C165.878 48 163.843 48.8429 162.343 50.3431C160.843 51.8434 160 53.8783 160 56V152C160 154.122 160.843 156.157 162.343 157.657C163.843 159.157 165.878 160 168 160ZM176 64H240V144H176V64Z" fill="#717171"/>
<path d="M336 440H416C418.122 440 420.157 439.157 421.657 437.657C423.157 436.157 424 434.122 424 432V336C424 333.878 423.157 331.843 421.657 330.343C420.157 328.843 418.122 328 416 328H336C333.878 328 331.843 328.843 330.343 330.343C328.843 331.843 328 333.878 328 336V432C328 434.122 328.843 436.157 330.343 437.657C331.843 439.157 333.878 440 336 440ZM344 344H408V424H344V344Z" fill="#717171"/>
<path d="M336 312H416C418.122 312 420.157 311.157 421.657 309.657C423.157 308.157 424 306.122 424 304V208C424 205.878 423.157 203.843 421.657 202.343C420.157 200.843 418.122 200 416 200H336C333.878 200 331.843 200.843 330.343 202.343C328.843 203.843 328 205.878 328 208V304C328 306.122 328.843 308.157 330.343 309.657C331.843 311.157 333.878 312 336 312ZM344 216H408V296H344V216Z" fill="#717171"/>
</svg>
