<svg width="512" height="512" viewBox="0 0 512 512" fill="none" xmlns="http://www.w3.org/2000/svg">
<path d="M61 497C61 505.398 67.5977 512 76 512H106C114.402 512 121 505.398 121 497V459.5H61V497Z" fill="#717171"/>
<path d="M106 0H76C67.5977 0 61 6.59766 61 15V54.5H121V15C121 6.59766 114.402 0 106 0Z" fill="#717171"/>
<path d="M61 234.5H121V279.5H61V234.5Z" fill="#717171"/>
<path d="M61 309.5H121V354.5H61V309.5Z" fill="#717171"/>
<path d="M61 84.5H121V129.5H61V84.5Z" fill="#717171"/>
<path d="M151 62H361V242H151V62Z" fill="#717171"/>
<path d="M151 272H361V452H151V272Z" fill="#717171"/>
<path d="M61 159.5H121V204.5H61V159.5Z" fill="#717171"/>
<path d="M61 384.5H121V429.5H61V384.5Z" fill="#717171"/>
<path d="M391 497C391 505.398 397.598 512 406 512H436C444.402 512 451 505.398 451 497V459.5H391V497Z" fill="#717171"/>
<path d="M436 0H406C397.598 0 391 6.59766 391 15V54.5H451V15C451 6.59766 444.402 0 436 0Z" fill="#717171"/>
<path d="M391 234.5H451V279.5H391V234.5Z" fill="#717171"/>
<path d="M391 309.5H451V354.5H391V309.5Z" fill="#717171"/>
<path d="M391 84.5H451V129.5H391V84.5Z" fill="#717171"/>
<path d="M391 159.5H451V204.5H391V159.5Z" fill="#717171"/>
<path d="M391 384.5H451V429.5H391V384.5Z" fill="#717171"/>
</svg>
