<svg width="512" height="512" viewBox="0 0 512 512" fill="none" xmlns="http://www.w3.org/2000/svg">
<path d="M421.09 270.32H381.494C385.53 281.37 387.735 293.295 387.735 305.724V455.374C387.735 460.556 386.833 465.53 385.192 470.156H450.653C475.106 470.156 494.999 450.262 494.999 425.81V344.229C495 303.476 461.844 270.32 421.09 270.32Z" fill="#717171"/>
<path d="M301.261 234.815H210.739C169.985 234.815 136.829 267.971 136.829 308.725V458.375C136.829 466.538 143.447 473.157 151.611 473.157H360.389C368.553 473.157 375.171 466.539 375.171 458.375V308.725C375.171 267.971 342.015 234.815 301.261 234.815Z" fill="#717171"/>
<path d="M256 38.84C206.988 38.84 167.114 78.714 167.114 127.727C167.114 160.972 185.463 190.007 212.561 205.251C225.414 212.481 240.232 216.613 256 216.613C271.768 216.613 286.586 212.481 299.439 205.251C326.538 190.007 344.886 160.971 344.886 127.727C344.886 78.715 305.012 38.84 256 38.84Z" fill="#717171"/>
<path d="M401.082 127.689C364.427 127.689 334.607 157.509 334.607 194.164C334.607 205.446 337.44 216.075 342.42 225.391C349.515 238.667 360.981 249.265 374.887 255.251C382.93 258.713 391.784 260.639 401.082 260.639C437.737 260.639 467.557 230.819 467.557 194.164C467.557 157.509 437.737 127.689 401.082 127.689Z" fill="#717171"/>
</svg>
