<svg width="512" height="366" viewBox="0 0 512 366" fill="none" xmlns="http://www.w3.org/2000/svg">
<path d="M496.964 0.719971H15.036C6.732 0.719971 0 7.45197 0 15.756V292.648C0 300.952 6.732 307.684 15.036 307.684H202.98V335.207H162.416C154.112 335.207 147.38 341.939 147.38 350.243C147.38 358.547 154.112 365.279 162.416 365.279H349.583C357.887 365.279 364.619 358.547 364.619 350.243C364.619 341.939 357.887 335.207 349.583 335.207H309.02V307.684H496.964C505.268 307.684 512 300.952 512 292.648V15.756C512 7.45197 505.268 0.719971 496.964 0.719971V0.719971ZM278.948 335.208H233.052V307.685H278.948V335.208ZM481.928 277.613H30.072V30.793H481.928V277.613Z" fill="#717171"/>
</svg>
